HIERARCHY
ROOT Hips
{
 OFFSET 0.000000 0.000000 0.000000
 CHANNELS 6 Xposition Yposition Zposition Yrotation Xrotation Zrotation
 JOINT Chest
 {
  OFFSET 0.000000 9.585900 0.002600
  CHANNELS 3 Yrotation Xrotation Zrotation
  JOINT Chest2
  {
   OFFSET 0.000000 9.601200 -0.005300
   CHANNELS 3 Yrotation Xrotation Zrotation
   JOINT Chest3
   {
    OFFSET 0.000000 9.561800 0.000000
    CHANNELS 3 Yrotation Xrotation Zrotation
    JOINT Chest4
    {
     OFFSET 0.000000 9.552100 0.000000
     CHANNELS 3 Yrotation Xrotation Zrotation
     JOINT Neck
     {
      OFFSET 0.000000 14.453000 0.000000
      CHANNELS 3 Yrotation Xrotation Zrotation
      JOINT Head
      {
       OFFSET 0.000000 8.936500 -0.011300
       CHANNELS 3 Yrotation Xrotation Zrotation
       End Site
       {
        OFFSET 0.000000 17.073600 -0.006000
       }
      }
     }
     JOINT RightCollar
     {
      OFFSET -2.921100 9.558500 0.000000
      CHANNELS 3 Yrotation Xrotation Zrotation
      JOINT RightShoulder
      {
       OFFSET -13.519700 0.000000 0.000000
       CHANNELS 3 Yrotation Xrotation Zrotation
       JOINT RightElbow
       {
        OFFSET 0.000000 -29.696600 0.000000
        CHANNELS 3 Yrotation Xrotation Zrotation
        JOINT RightWrist
        {
         OFFSET 0.000000 -24.004700 0.000000
         CHANNELS 3 Yrotation Xrotation Zrotation
         End Site
         {
          OFFSET 0.000000 -17.728500 0.000000
         }
        }
       }
      }
     }
     JOINT LeftCollar
     {
      OFFSET 2.921100 9.558500 0.000000
      CHANNELS 3 Yrotation Xrotation Zrotation
      JOINT LeftShoulder
      {
       OFFSET 13.519700 0.000000 0.000000
       CHANNELS 3 Yrotation Xrotation Zrotation
       JOINT LeftElbow
       {
        OFFSET 0.000000 -29.696600 0.000000
        CHANNELS 3 Yrotation Xrotation Zrotation
        JOINT LeftWrist
        {
         OFFSET 0.000000 -24.004700 0.000000
         CHANNELS 3 Yrotation Xrotation Zrotation
         End Site
         {
          OFFSET 0.000000 -17.728500 0.000000
         }
        }
       }
      }
     }
    }
   }
  }
 }
 JOINT RightHip
 {
  OFFSET -7.771700 -0.012900 -0.001300
  CHANNELS 3 Yrotation Xrotation Zrotation
  JOINT RightKnee
  {
   OFFSET 0.000000 -40.869800 0.001200
   CHANNELS 3 Yrotation Xrotation Zrotation
   JOINT RightAnkle
   {
    OFFSET 0.000000 -39.717900 0.002100
    CHANNELS 3 Yrotation Xrotation Zrotation
    JOINT RightToe
    {
     OFFSET 0.000000 -4.965400 11.033500
     CHANNELS 3 Yrotation Xrotation Zrotation
     End Site
     {
      OFFSET 0.000000 -1.423100 5.872300
     }
    }
   }
  }
 }
 JOINT LeftHip
 {
  OFFSET 7.771700 -0.012900 -0.001300
  CHANNELS 3 Yrotation Xrotation Zrotation
  JOINT LeftKnee
  {
   OFFSET 0.000000 -40.869800 0.001200
   CHANNELS 3 Yrotation Xrotation Zrotation
   JOINT LeftAnkle
   {
    OFFSET 0.000000 -39.717900 0.002100
    CHANNELS 3 Yrotation Xrotation Zrotation
    JOINT LeftToe
    {
     OFFSET 0.000000 -4.965400 11.033500
     CHANNELS 3 Yrotation Xrotation Zrotation
     End Site
     {
      OFFSET 0.000000 -1.423100 5.872300
     }
    }
   }
  }
 }
}
MOTION
Frames: 16
Frame Time: 0.008333
0.000000 85.388000 0.000000 0.000000 -5.767877 0.000000 0.000000 11.653817 0.000000 0.000000 -5.885947 0.000000 0.000000 -0.000000 0.000000 0.000000 -0.000000 0.000000 0.000000 12.528835 0.000000 0.000000 0.711642 0.000000 0.000000 -0.000000 0.000000 0.000000 0.000000 -90.000000 0.000000 -2.309062 0.000000 0.000000 2.309062 0.000000 0.000000 -0.000000 0.000000 0.000000 -0.000000 90.000000 0.000000 -2.309062 0.000000 0.000000 2.309062 0.000000 0.000000 8.520406 0.000000 0.000000 1.905762 0.000000 -0.000000 -4.658285 0.000000 0.000000 -0.000000 0.000000 0.000000 8.520406 0.000000 0.000000 1.905762 0.000000 -0.000000 -4.658285 0.000000 0.000000 -0.000000 0.000000
-96.192562 51.645272 -34.348925 174.609423 -20.107335 -0.040593 -4.096578 8.679685 0.173766 -0.260374 0.497483 0.055440 -0.416810 0.876914 0.111102 -3.786117 8.120069 0.790327 -0.080873 14.783135 -0.978168 0.209345 -10.039201 -1.009455 4.516357 11.469451 5.791697 7.871471 -17.598417 -69.317753 139.929123 -48.289770 161.199183 -24.495769 -9.318849 41.222422 -5.266018 13.781691 -15.602900 -36.966570 5.067856 37.597662 178.879324 -42.210385 -164.173505 22.343044 -12.238714 -58.642454 -16.822710 -62.251557 12.008062 -85.801858 82.785613 -93.760339 -4.739759 -10.896737 6.616154 0.341265 -0.914999 0.128660 15.130474 -60.470240 -9.978773 24.042675 84.035098 30.759820 -2.446041 -10.832002 0.807760 0.170794 0.516842 0.086697
-96.191109 51.644569 -34.350071 174.622588 -20.097067 -0.038699 -4.055353 8.688750 0.199447 -0.219063 0.510122 0.071100 -0.490991 0.851513 0.083162 -3.663214 8.141395 0.841866 -0.172978 14.903286 -1.021420 0.068423 -10.056133 -1.028119 4.486659 11.528301 5.838501 7.732317 -17.560146 -68.924602 140.149804 -47.558512 161.290472 -24.875871 -9.257602 42.010046 -5.362043 13.842848 -15.667646 -36.755494 4.918418 37.644178 179.313349 -42.255101 -164.336676 22.360490 -12.227418 -58.533934 -16.842777 -62.262794 12.011303 -85.840783 82.790911 -93.800979 -4.736222 -10.892219 6.611494 0.341119 -0.909451 0.133794 15.162059 -60.478982 -10.006188 23.980807 84.039274 30.697251 -2.452505 -10.834174 0.817004 0.170643 0.518267 0.088743
-96.189775 51.644515 -34.352010 174.632292 -20.090033 -0.033092 -4.048012 8.687209 0.200908 -0.162048 0.526794 0.087199 -0.422398 0.865723 0.109621 -3.669604 8.121706 0.842827 -0.272797 14.973179 -1.063126 -0.044204 -10.024211 -1.042807 4.466988 11.579893 5.902943 7.604003 -17.481787 -68.539435 140.366427 -46.832731 161.366181 -25.236398 -9.203683 42.780907 -5.454635 13.912984 -15.722330 -36.531601 4.766296 37.680866 179.764041 -42.292809 -164.488902 22.358599 -12.207271 -58.381215 -16.868062 -62.269583 12.020024 -85.871613 82.794236 -93.841925 -4.728269 -10.887637 6.610810 0.340276 -0.904090 0.134832 15.197777 -60.483104 -10.037977 23.924273 84.043459 30.642945 -2.457120 -10.834085 0.823370 0.174139 0.515034 0.088353
-96.189339 51.643845 -34.350792 174.640067 -20.061842 -0.022972 -3.934277 8.703133 0.239842 -0.245984 0.492671 0.066484 -0.359405 0.882703 0.121583 -3.635639 8.115355 0.852104 -0.388379 14.981867 -1.080846 -0.103045 -9.943632 -1.075418 4.457322 11.618658 5.988771 7.498839 -17.376915 -68.172548 140.578852 -46.115565 161.435121 -25.582898 -9.147439 43.528284 -5.537437 13.979437 -15.762723 -36.297633 4.616719 37.701412 -179.765088 -42.321911 -164.625471 22.326594 -12.190617 -58.169773 -16.871960 -62.299232 12.014763 -85.864648 82.792701 -93.836532 -4.718861 -10.888366 6.612831 0.335705 -0.898008 0.132529 15.244615 -60.507364 -10.086397 23.873551 84.043163 30.593231 -2.458751 -10.830876 0.829619 0.170070 0.514999 0.088447
-96.190465 51.643079 -34.347380 174.655424 -20.018970 -0.008192 -3.872383 8.698246 0.243959 -0.241598 0.491317 0.066340 -0.372723 0.875196 0.116052 -3.639161 8.098519 0.861058 -0.390895 15.055850 -1.118026 -0.174552 -9.920152 -1.070776 4.517065 11.666800 6.090105 7.417531 -17.276237 -67.837041 140.794840 -45.420081 161.508325 -25.924116 -9.095389 44.247895 -5.546961 14.055373 -15.793840 -36.054285 4.467271 37.698886 -179.263233 -42.345058 -164.754566 22.275955 -12.174048 -57.887191 -16.875090 -62.347068 12.000902 -85.868092 82.791109 -93.841682 -4.703561 -10.888034 6.611504 0.329624 -0.892634 0.134113 15.290559 -60.543382 -10.150381 23.846325 84.035387 30.562324 -2.458016 -10.824014 0.835785 0.165133 0.515043 0.085238
-96.190988 51.643496 -34.345179 174.667131 -19.984555 0.003168 -3.846323 8.698721 0.222834 -0.222985 0.499699 0.065919 -0.385993 0.865844 0.112926 -3.620905 8.083057 0.881506 -0.392311 15.129924 -1.163903 -0.200448 -9.900129 -1.050558 4.576670 11.711460 6.202513 7.344483 -17.206707 -67.529966 141.044879 -44.751340 161.575631 -26.267108 -9.058434 44.943236 -5.550892 14.129304 -15.812443 -35.789777 4.305290 37.673188 -178.739960 -42.361032 -164.883022 22.216662 -12.140126 -57.524687 -16.877929 -62.382982 11.991974 -85.856171 82.789518 -93.830200 -4.700751 -10.891438 6.611759 0.323075 -0.870921 0.136836 15.341839 -60.570485 -10.208486 23.770683 84.031628 30.489200 -2.462937 -10.819972 0.841091 0.171613 0.515787 0.085453
-96.190960 51.644513 -34.342862 174.666148 -19.949952 0.012994 -3.836432 8.698852 0.177092 -0.222692 0.499749 0.063069 -0.380793 0.857569 0.129648 -3.570572 8.122174 0.787120 -0.398188 15.102948 -1.053972 -0.138373 -9.828140 -1.069938 4.649336 11.695379 6.435404 7.262793 -17.168991 -67.236286 141.360061 -44.101053 161.612251 -26.609232 -9.035893 45.615054 -5.526288 14.172309 -15.695683 -35.499648 4.125127 37.630595 -178.224333 -42.365843 -164.995849 22.135273 -12.082538 -57.070610 -16.878446 -62.416086 11.994204 -85.809855 82.789135 -93.784492 -4.695401 -10.896167 6.612912 0.315246 -0.858681 0.135711 15.387317 -60.599104 -10.250579 23.704400 84.029556 30.425495 -2.465907 -10.818444 0.842609 0.175159 0.516006 0.085226
-96.192350 51.645986 -34.340683 174.675358 -19.915178 0.024767 -3.859180 8.690434 0.094719 -0.223520 0.499247 0.058559 -0.382320 0.856651 0.121816 -3.593137 8.125495 0.689807 -0.276944 15.156190 -0.982465 -0.049282 -9.800755 -1.010562 4.832342 11.704550 6.712424 7.179448 -17.135789 -66.948023 141.736299 -43.467117 161.609179 -26.945545 -9.026564 46.259921 -5.406939 14.214262 -15.526991 -35.151635 3.958045 37.539942 -177.730586 -42.351317 -165.081814 22.011011 -12.006351 -56.485287 -16.870516 -62.452888 11.976871 -85.806850 82.799637 -93.778905 -4.699671 -10.904344 6.615780 0.310770 -0.848986 0.134407 15.424144 -60.626498 -10.295854 23.644836 84.024274 30.362164 -2.472029 -10.813638 0.845448 0.176111 0.516893 0.087597
-96.194054 51.648044 -34.339401 174.686091 -19.885239 0.034926 -3.873750 8.679156 0.016029 -0.223429 0.497477 0.054100 -0.386931 0.862059 0.092436 -3.595600 8.104781 0.640955 -0.151388 15.222586 -0.941408 0.054606 -9.764694 -0.944401 4.979053 11.725872 6.966277 7.117983 -17.078227 -66.666880 142.151412 -42.854046 161.568554 -27.276272 -9.027069 46.877112 -5.269525 14.353028 -15.394715 -34.841704 3.753450 37.488074 -177.249296 -42.318209 -165.153661 21.838655 -11.930523 -55.714810 -16.867922 -62.482062 11.964070 -85.805237 82.818387 -93.779539 -4.714374 -10.917777 6.622049 0.308389 -0.837791 0.132728 15.457102 -60.647890 -10.334676 23.577339 84.017216 30.289198 -2.483208 -10.812244 0.849628 0.179892 0.519460 0.090587
-96.196953 51.650052 -34.337734 174.694179 -19.851223 0.049276 -3.861404 8.660304 -0.031506 -0.221511 0.494770 0.051370 -0.401500 0.855203 0.099991 -3.563308 8.089533 0.588313 -0.042906 15.276317 -0.902114 0.158493 -9.708630 -0.928111 5.005760 11.738693 7.110365 7.111786 -16.990405 -66.350824 142.605846 -42.261888 161.486536 -27.604524 -9.024790 47.467537 -5.205952 14.491758 -15.319735 -34.514527 3.544176 37.420839 -176.782888 -42.275300 -165.215894 21.638848 -11.888564 -54.768150 -16.852398 -62.519768 11.940134 -85.810677 82.828262 -93.783332 -4.718247 -10.924832 6.626033 0.308719 -0.834279 0.132634 15.496361 -60.672427 -10.384098 23.652481 84.000868 30.357845 -2.500053 -10.806190 0.854957 0.182170 0.518178 0.090263
-96.198837 51.652476 -34.337036 174.696503 -19.822961 0.056614 -3.848572 8.636774 -0.049901 -0.221263 0.494652 0.055375 -0.385108 0.864137 0.098924 -3.563910 8.054278 0.563416 0.087794 15.334340 -0.889352 0.282753 -9.638376 -0.932949 5.093746 11.778857 7.282688 7.078932 -16.916702 -66.113629 143.113668 -41.687636 161.361245 -27.939594 -9.011782 48.035206 -5.164745 14.611518 -15.287484 -34.147956 3.343174 37.321675 -176.361673 -42.213224 -165.251401 21.459730 -11.883172 -53.712735 -16.829127 -62.548254 11.920689 -85.793908 82.827372 -93.757371 -4.724051 -10.929553 6.627278 0.314825 -0.832661 0.136164 15.519691 -60.694208 -10.415175 23.646450 83.993979 30.351040 -2.498114 -10.802750 0.855082 0.182968 0.515492 0.087579
-96.202614 51.654928 -34.336629 174.703797 -19.794595 0.070678 -3.856540 8.605920 -0.069420 -0.219560 0.490897 0.049388 -0.380523 0.851135 0.084380 -3.566540 8.059976 0.574573 0.259158 15.386879 -0.896370 0.428817 -9.566220 -0.947399 5.203382 11.827625 7.423644 7.047660 -16.865131 -65.885397 143.680105 -41.127670 161.192649 -28.285909 -8.988933 48.582769 -5.096633 14.716516 -15.280739 -33.763472 3.146621 37.212258 -176.047495 -42.114507 -165.227147 21.345120 -11.896804 -52.573882 -16.804994 -62.578897 11.890569 -85.791017 82.838378 -93.752372 -4.734183 -10.937274 6.634479 0.305725 -0.831211 0.135107 15.545781 -60.712559 -10.458084 23.665926 83.982391 30.366029 -2.502026 -10.797545 0.856190 0.183840 0.514854 0.086221
-96.205969 51.657209 -34.335790 174.697980 -19.763063 0.084080 -3.836560 8.577177 -0.087997 -0.197555 0.496832 0.049159 -0.354135 0.854107 0.082664 -3.592417 8.013353 0.557648 0.434560 15.476090 -0.867703 0.580990 -9.509458 -0.968580 5.265683 11.905149 7.564935 7.021983 -16.826516 -65.641400 144.292303 -40.577555 160.991647 -28.631366 -8.960562 49.097422 -5.051226 14.837138 -15.249739 -33.366092 2.956586 37.093812 -175.902738 -41.977016 -165.103087 21.289897 -11.940374 -51.347063 -16.776697 -62.611120 11.869884 -85.739700 82.852347 -93.697670 -4.746721 -10.933751 6.643053 0.292298 -0.833555 0.130934 15.578946 -60.736129 -10.492258 23.676914 83.973307 30.372070 -2.506705 -10.791904 0.858658 0.184591 0.511900 0.085495
-96.211280 51.659180 -34.334483 174.704846 -19.726847 0.103009 -3.807335 8.560954 -0.098046 -0.187572 0.506788 0.052124 -0.381103 0.833767 0.078452 -3.549043 8.008414 0.546612 0.600630 15.536359 -0.850054 0.744112 -9.461338 -0.994579 5.303371 11.954435 7.683855 6.985909 -16.793211 -65.400792 144.914875 -40.033105 160.785461 -28.962834 -8.936021 49.554267 -5.038585 14.908474 -15.235056 -32.963855 2.770310 36.967552 -175.930647 -41.799862 -164.872512 21.277765 -12.016953 -50.056440 -16.743971 -62.652963 11.829115 -85.714449 82.857834 -93.664742 -4.761159 -10.930727 6.645556 0.309453 -0.835073 0.131427 15.618805 -60.762809 -10.550225 23.622516 83.967591 30.312293 -2.504154 -10.782241 0.861473 0.186755 0.507451 0.085517
-96.216482 51.660893 -34.332553 174.700074 -19.686053 0.124043 -3.751974 8.563406 -0.096398 -0.194643 0.498154 0.051790 -0.406299 0.811708 0.071308 -3.444235 8.043534 0.548113 0.723150 15.561548 -0.832669 0.921777 -9.412484 -1.024503 5.285723 11.968494 7.794847 6.941178 -16.753344 -65.164926 145.514928 -39.497569 160.593096 -29.275102 -8.928697 49.939712 -5.088951 14.941128 -15.222811 -32.563530 2.581182 36.840527 -176.099491 -41.575014 -164.554607 21.323580 -12.124725 -48.738570 -16.715857 -62.697852 11.804601 -85.659737 82.857463 -93.614805 -4.743809 -10.921701 6.650539 0.314163 -0.839445 0.131286 15.623259 -60.795679 -10.568360 23.589764 83.959836 30.253241 -2.500427 -10.779011 0.864473 0.188157 0.508524 0.084136
